<svg xmlns="http://www.w3.org/2000/svg" viewBox="0 0 32 32" id="tictactoe"><g data-name="tic tac toe" fill="#595bd4" class="color000000 svgShape"><path d="M2.38 29.62H11V21H2.38Zm1-7a.37.37 0 0 1 .53-.53l2.76 2.71 2.73-2.73a.37.37 0 0 1 .53.53L7.2 25.33l2.73 2.74a.37.37 0 0 1 0 .53.38.38 0 0 1-.26.11.39.39 0 0 1-.27-.11l-2.73-2.73-2.74 2.73a.38.38 0 0 1-.26.11.39.39 0 0 1-.27-.11.37.37 0 0 1 0-.53l2.73-2.74ZM2.38 2.38h8.58v8.58H2.38zM16 28a2.63 2.63 0 1 0-2.62-2.63A2.62 2.62 0 0 0 16 28ZM2.38 11.71h8.58v8.58H2.38z" fill="#595bd4" class="color000000 svgShape"></path><path d="M11.71 29.62h8.58V21h-8.58zM16 22a3.38 3.38 0 1 1-3.38 3.37A3.38 3.38 0 0 1 16 22zm0-12.71a2.63 2.63 0 1 0-2.62-2.62A2.62 2.62 0 0 0 16 9.29zM25.33 4A2.63 2.63 0 1 0 28 6.67 2.63 2.63 0 0 0 25.33 4zM21.04 11.71h8.58v8.58h-8.58z" fill="#595bd4" class="color000000 svgShape"></path><path d="M11.71 20.29h8.58v-8.58h-8.58zm1-7a.38.38 0 0 1 .54-.54L16 15.47l2.73-2.74a.38.38 0 0 1 .54.54L16.53 16l2.74 2.73a.4.4 0 0 1 0 .54.39.39 0 0 1-.54 0L16 16.53l-2.73 2.74a.39.39 0 0 1-.54 0 .4.4 0 0 1 0-.54L15.47 16zM21 2.38V11h8.58V2.38zM25.33 10a3.38 3.38 0 1 1 3.38-3.37A3.37 3.37 0 0 1 25.33 10zm-13.62 1h8.58V2.38h-8.58zM16 3.29a3.38 3.38 0 1 1-3.38 3.38A3.38 3.38 0 0 1 16 3.29zm5 26.33h8.58V21H21zm1-7a.37.37 0 0 1 .53-.53l2.73 2.73L28 22.09a.37.37 0 0 1 .53.53l-2.73 2.73 2.73 2.74a.37.37 0 0 1 0 .53.39.39 0 0 1-.27.11.38.38 0 0 1-.26-.11l-2.74-2.73-2.66 2.71a.39.39 0 0 1-.27.11.38.38 0 0 1-.26-.11.37.37 0 0 1 0-.53l2.73-2.74z" fill="#595bd4" class="color000000 svgShape"></path></g></svg>